<svg version="1.2" xmlns="http://www.w3.org/2000/svg" viewBox="0 0 1563 1547" width="1563" height="1547">
	<title>apple-touch-icon-152x152-precomposed-svg</title>
	<style>
		.s0 { fill: #1c49c2 } 
	</style>
	<g id="#ffffffff">
		<path id="Layer" class="s0" d="m792.1 4.7c177.4-14.7 372.4 5.3 518.4 116.2 91.8 67.5 141.3 201.1 84.8 306.3-43.1 81.2-150 127-237.1 92.2-91-33.7-168.4-103-267.5-114.5-109-14.3-232.3 33.9-283.4 135.7-48.9 97.5-37.6 212.6-11.8 315.1 25.1 95 68.4 195.6 156.9 247.5 95.4 56.8 220.5 23.7 299.3-46.8 82.3-68.6 137.2-177.6 246-208.5 121.8-35 256.7 60.4 264.5 186.2 1.3 119.5-72.2 226.2-159.3 301.9-147.9 125.8-342.2 181.3-531.8 204-208.1 23.9-434.6-12.9-599.3-150.5-172.6-141.9-251.4-367.5-268.7-584.5-15.9-183.1 33.4-376.4 158-514.8 158.6-179 398.9-261.3 631-285.5z"/>
	</g>
</svg>